<svg
                xmlns="http://www.w3.org/2000/svg"
                fill="none"
                viewBox="0 0 100 100"
              >
                <g fill="#7d7d7d" clip-path="url(#a)">
                  <path d="M7.448 42.29c-.2 0-.2-.1-.1-.2l1.001-1.301c.1-.1.3-.2.5-.2h17.422c.2 0 .2.1.1.3l-.8 1.302c-.1.1-.301.3-.501.3zM.14 46.797c-.2 0-.2-.1-.2-.3l1-1.303c.2-.1.4-.2.6-.2h22.228c.2 0 .3.1.2.3l-.4 1.202c0 .2-.2.3-.4.3zm11.815 4.506c-.2 0-.2-.1-.1-.3l.7-1.202c.1-.1.3-.3.5-.3h9.713q.3 0 .3.3l-.2 1.202c0 .2-.2.3-.3.3zm50.561-9.912c-3.104.8-5.206 1.401-8.21 2.102-.7.2-.8.2-1.401-.5-.701-.801-1.302-1.402-2.303-1.903-3.104-1.501-6.008-1.101-8.811.701-3.304 2.103-5.006 5.307-5.006 9.312 0 3.904 2.703 7.108 6.608 7.609 3.304.4 6.107-.701 8.31-3.204.4-.5.801-1.101 1.302-1.802h-9.412c-1.001 0-1.301-.601-.9-1.502.6-1.502 1.801-4.005 2.502-5.306.1-.3.5-.801 1.202-.801h17.721c-.1 1.301-.1 2.603-.3 3.904-.5 3.505-1.903 6.708-4.005 9.512-3.504 4.605-8.11 7.509-13.917 8.31-4.806.6-9.211-.3-13.116-3.204-3.604-2.703-5.607-6.308-6.208-10.813-.6-5.106 1.002-9.812 4.205-14.017 3.505-4.506 8.01-7.41 13.617-8.41 4.606-.801 9.011-.3 12.916 2.403 2.603 1.702 4.405 4.004 5.607 6.908.4.3.2.6-.4.7" />
                  <path d="M78.635 68.423c-4.405-.1-8.51-1.402-11.915-4.305-2.903-2.503-4.705-5.607-5.306-9.412-.901-5.507.6-10.413 3.905-14.718 3.604-4.706 7.81-7.108 13.616-8.11 5.007-.9 9.612-.4 13.917 2.503 3.805 2.603 6.208 6.208 6.909 10.914.801 6.608-1.102 11.914-5.607 16.52-3.104 3.204-7.009 5.206-11.614 6.107-1.302.3-2.603.3-3.905.5m11.614-19.724c0-.6 0-1.102-.1-1.602-.901-4.806-5.306-7.51-9.912-6.508-4.505 1.001-7.41 3.905-8.51 8.51a8.04 8.04 0 0 0 4.505 9.212c2.703 1.201 5.407 1 7.91-.3 3.804-2.003 5.907-5.107 6.107-9.312" />
                </g>
                <defs>
                  <clipPath id="a">
                    <path fill="#fff" d="M0 0h100v100H0z" />
                  </clipPath>
                </defs>
              </svg>