<?xml version="1.0" encoding="UTF-8"?>
<svg version="1.1" fill="#848890" xmlns="http://www.w3.org/2000/svg" width="128" height="160">
<path d="M0 0 C2.36299568 1.58761053 3.22848192 2.96827585 4.56689453 5.46899414 C5.00517578 6.2746582 5.44345703 7.08032227 5.89501953 7.91040039 C6.33845703 8.7521582 6.78189453 9.59391602 7.23876953 10.46118164 C7.92712891 11.73541992 7.92712891 11.73541992 8.62939453 13.03540039 C9.75932834 15.130486 10.87856283 17.23059534 11.98876953 19.33618164 C8.9281153 22.69114734 5.77593789 24.79721353 1.82470703 27.01586914 C0.93653793 27.51873947 0.93653793 27.51873947 0.03042603 28.0317688 C-1.85504399 29.09777084 -3.74536215 30.15479011 -5.63623047 31.21118164 C-8.10885833 32.60215539 -10.5795532 33.99654517 -13.05029297 35.39086914 C-13.64618225 35.72624695 -14.24207153 36.06162476 -14.85601807 36.40716553 C-19.96619541 39.29037655 -24.99713859 42.28952391 -30.01123047 45.33618164 C-26.05123047 52.76118164 -26.05123047 52.76118164 -22.01123047 60.33618164 C-17.26652382 59.39716926 -17.26652382 59.39716926 -13.29638672 57.33227539 C-12.61648682 56.92477051 -11.93658691 56.51726563 -11.23608398 56.09741211 C-10.52250732 55.66058105 -9.80893066 55.22375 -9.07373047 54.77368164 C-7.56369973 53.8680899 -6.05327647 52.96315237 -4.54248047 52.05883789 C-3.78708984 51.60395996 -3.03169922 51.14908203 -2.25341797 50.68041992 C1.12085214 48.65747445 4.51791687 46.67602856 7.92626953 44.71118164 C9.61042969 43.7327832 9.61042969 43.7327832 11.32861328 42.73461914 C13.98876953 41.33618164 13.98876953 41.33618164 15.98876953 41.33618164 C17.63877339 44.27135765 19.28304385 47.20970638 20.92626953 50.14868164 C21.39484375 50.98206055 21.86341797 51.81543945 22.34619141 52.67407227 C23.01811523 53.87773438 23.01811523 53.87773438 23.70361328 55.10571289 C24.11732178 55.844104 24.53103027 56.58249512 24.95727539 57.34326172 C25.98876953 59.33618164 25.98876953 59.33618164 26.98876953 62.33618164 C26.28381348 62.7288623 25.57885742 63.12154297 24.85253906 63.52612305 C21.60535133 65.33614432 18.35955518 67.14864741 15.11376953 68.96118164 C14.00517578 69.57864258 12.89658203 70.19610352 11.75439453 70.83227539 C5.09442585 74.5540226 -1.49844641 78.36218582 -8.01123047 82.33618164 C-6.02394552 87.48169419 -3.32072184 91.97700307 -0.47216797 96.69165039 C0.98876953 99.33618164 0.98876953 99.33618164 0.98876953 101.33618164 C15.4224157 93.51530729 29.76082381 85.52525651 43.98876953 77.33618164 C47.96797174 80.82254688 50.22703413 84.88769601 52.73876953 89.46118164 C53.14998047 90.18950195 53.56119141 90.91782227 53.98486328 91.66821289 C56.98876953 97.06726034 56.98876953 97.06726034 56.98876953 99.33618164 C56.35712891 99.68696777 55.72548828 100.03775391 55.07470703 100.39916992 C43.19337814 107.00537711 31.34767281 113.65832397 19.61376953 120.52368164 C18.63263184 121.09763672 17.65149414 121.6715918 16.640625 122.26293945 C12.80167408 124.51122134 8.96450353 126.7625047 5.12939453 129.01733398 C2.45969061 130.58569182 -0.21299886 132.1488468 -2.88623047 133.71118164 C-3.68335449 134.18193115 -4.48047852 134.65268066 -5.30175781 135.13769531 C-10.78435612 138.33618164 -10.78435612 138.33618164 -13.01123047 138.33618164 C-13.38296387 137.6678833 -13.75469727 136.99958496 -14.13769531 136.31103516 C-23.47706537 119.5292963 -23.47706537 119.5292963 -33.12133789 102.92211914 C-36.86347525 96.6094657 -40.53495797 90.25709367 -44.19873047 83.89868164 C-44.82730957 82.80813477 -45.45588867 81.71758789 -46.10351562 80.59399414 C-48.7762289 75.95543437 -51.44741596 71.31599778 -54.11767578 66.67602539 C-55.85295488 63.66075763 -57.58914786 60.64601757 -59.32583618 57.63156128 C-60.30599674 55.9294769 -61.28496743 54.22670751 -62.26391602 52.52392578 C-62.8572876 51.49388428 -63.45065918 50.46384277 -64.06201172 49.40258789 C-64.58448486 48.49452393 -65.10695801 47.58645996 -65.64526367 46.65087891 C-66.71101012 44.84491964 -67.84803799 43.08097035 -69.01123047 41.33618164 C-69.01123047 40.34618164 -69.01123047 39.35618164 -69.01123047 38.33618164 C-66.36972248 36.81223472 -63.72820858 35.28829806 -61.08666992 33.7644043 C-58.75958679 32.42179934 -56.43258709 31.0790509 -54.10571289 29.73608398 C-48.08045949 26.25886587 -42.05367014 22.784379 -36.02294922 19.31665039 C-34.90662109 18.67405273 -33.79029297 18.03145508 -32.64013672 17.36938477 C-30.44194252 16.10458162 -28.24273424 14.84153916 -26.04248047 13.58032227 C-21.37738935 10.89775142 -16.7377646 8.19755449 -12.18701172 5.32446289 C-11.48858154 4.88666504 -10.79015137 4.44886719 -10.07055664 3.99780273 C-8.82842595 3.21173139 -7.59459846 2.41229385 -6.37182617 1.59643555 C-2.52941473 -0.8348481 -2.52941473 -0.8348481 0 0 Z " transform="translate(71.01123046875,0.663818359375)"/>
<path d="M0 0 C2.47490306 2.26213474 4.02495856 4.55254003 5.64453125 7.48046875 C6.14903809 8.38450439 6.65354492 9.28854004 7.17333984 10.2199707 C7.98472412 11.68889771 7.98472412 11.68889771 8.8125 13.1875 C9.98685626 15.28985912 11.1626836 17.39139706 12.33984375 19.4921875 C13.24839111 21.11398926 13.24839111 21.11398926 14.17529297 22.76855469 C17.02391991 27.81329997 19.94572423 32.81427775 22.875 37.8125 C27.89028615 46.37535528 32.86467976 54.96048441 37.8125 63.5625 C43.11094583 72.76857516 48.47571748 81.92760106 54 91 C71.77438428 81.12230484 71.77438428 81.12230484 89.36352539 70.9206543 C95.58473594 67.23465299 101.83173388 63.59382997 108.09011841 59.97140503 C109.27275273 59.2863559 110.45478838 58.60027215 111.63619995 57.91311646 C113.29497945 56.94852234 114.9560408 55.98785552 116.6171875 55.02734375 C117.58253418 54.46781006 118.54788086 53.90827637 119.54248047 53.33178711 C122 52 122 52 125 51 C125 52.98 125 54.96 125 57 C122.35880669 58.52376537 119.71761273 60.0475296 117.07641602 61.57128906 C114.74616432 62.91567138 112.41592188 64.26006971 110.08569336 65.60449219 C104.10817017 69.0531854 98.13048203 72.50159185 92.15234375 75.94921875 C91.05656006 76.58134277 89.96077637 77.2134668 88.83178711 77.86474609 C86.65989046 79.11718325 84.48753016 80.36881673 82.31469727 81.61962891 C77.27982262 84.51993251 72.25369943 87.4329052 67.25 90.38671875 C66.36884521 90.90459961 65.48769043 91.42248047 64.57983398 91.95605469 C62.94851255 92.91608364 61.320209 93.88126675 59.69555664 94.85253906 C58.98262451 95.27116211 58.26969238 95.68978516 57.53515625 96.12109375 C56.920354 96.4864624 56.30555176 96.85183105 55.67211914 97.22827148 C54 98 54 98 51 98 C49.47647173 95.35921766 47.952948 92.71843269 46.42944336 90.07763672 C45.08267577 87.74328358 43.73584393 85.40896765 42.38891602 83.07470703 C38.97622702 77.16021511 35.56460594 71.24511559 32.15625 65.328125 C24.88019477 52.69993028 17.57136178 40.09159754 10.21875 27.5078125 C9.69998291 26.61384766 9.18121582 25.71988281 8.64672852 24.79882812 C7.4708691 22.80030295 6.27063884 20.81603515 5.05444336 18.84179688 C4.41643799 17.79314453 3.77843262 16.74449219 3.12109375 15.6640625 C2.53513428 14.71740723 1.9491748 13.77075195 1.34545898 12.79541016 C-0.70738261 8.53029742 -0.64349086 4.61679158 0 0 Z " transform="translate(2,61)"/>
</svg>
